# xmcd CD database file
#
# Track frame offsets:
#	150
#	16418
#	39011
#	61824
#	85006
#	100550
#	114513
#	131154
#	156447
#	182725
#	197384
#	215227
#	232209
#	256690
#	281920
#	302093
#
# Disc length: 4305 seconds
#
# Revision: 9
# Processed by: cddbd v1.5.1PL0 Copyright (c) Steve Scherf et al.
# Submitted via: CDex 1.51
#
DISCID=d810cf10
DTITLE=Various Artist - Disco Nights
DYEAR=2002
DGENRE=Disco
TTITLE0=Earth, Wid and Fire - September
TTITLE1=Wild Cherry - Play That Funky Music
TTITLE2=Heatwave - Boogie Nights
TTITLE3=Cheryl Lynn - Got To Be Real
TTITLE4=Dan Hartman - Instant Replay
TTITLE5=The O'jays - Back Stabbers
TTITLE6=The Emothons - Best Of My Love
TTITLE7=Earth, Wind and Fire - Let's Groove
TTITLE8=Mfsb - T.S.O.P
TTITLE9=The Three Degrees - Dirty Ol'man
TTITLE10=Labelle - Lady Marmalade
TTITLE11=Dan Hartman - Relight My Fire
TTITLE12=The Weather Girls - It's Raining Men
TTITLE13=The Isley Brothers - That Lady
TTITLE14=Cheryl Lynn - In The Night
TTITLE15=Earth, Wind and Fire - Fantasy
EXTD=YEAR: 2002
EXTT0=
EXTT1=
EXTT2=
EXTT3=
EXTT4=
EXTT5=
EXTT6=
EXTT7=
EXTT8=
EXTT9=
EXTT10=
EXTT11=
EXTT12=
EXTT13=
EXTT14=
EXTT15=
PLAYORDER=
